<?xml version="1.0" encoding="UTF-8"?>
<!-- Generator: https://ezgif.com/png-to-svg -->
<svg version="1.1" xmlns="http://www.w3.org/2000/svg" width="499" height="176">
<path d="M0 0 C164.67 0 329.34 0 499 0 C499 58.08 499 116.16 499 176 C334.33 176 169.66 176 0 176 C0 117.92 0 59.84 0 0 Z " fill="#010101" transform="translate(0,0)"/>
<path d="M0 0 C12.54 0 25.08 0 38 0 C38 47.19 38 94.38 38 143 C25.46 143 12.92 143 0 143 C0 95.81 0 48.62 0 0 Z " fill="#FFFFFF" transform="translate(441,14)"/>
<path d="M0 0 C40.35 0 40.35 0 50 8 C55.32 13.38 57.29 18.14 57.38 25.69 C57.25 34.14 55.23 41.95 49 48 C40.56 54.08 33.05 56.16 22.62 56.06 C19.35 56.03 19.35 56.03 16 56 C16 64.58 16 73.16 16 82 C10.72 82 5.44 82 0 82 C0 54.94 0 27.88 0 0 Z " fill="#F8CC1A" transform="translate(24,39)"/>
<path d="M0 0 C4.52 3.45 6.49 7.25 7.94 12.75 C8.33 16.51 8.29 20.24 8.23 24.03 C8.23 25.61 8.23 25.61 8.22 27.22 C8.2 30.56 8.17 33.9 8.13 37.25 C8.11 39.52 8.1 41.8 8.09 44.07 C8.05 49.63 8 55.19 7.94 60.75 C3.32 60.75 -1.3 60.75 -6.06 60.75 C-6.55 57.28 -6.55 57.28 -7.06 53.75 C-7.92 54.51 -8.79 55.27 -9.68 56.06 C-14.9 60.66 -20.04 62.31 -26.93 62.25 C-27.64 62.24 -28.35 62.24 -29.07 62.23 C-34.88 62.04 -38.95 60.9 -43.06 56.75 C-47.56 50.79 -47.81 43.99 -47.06 36.75 C-43.91 30.21 -38.83 26.28 -32.31 23.43 C-24.48 20.73 -16.22 21.42 -8.06 21.75 C-8.26 20.14 -8.5 18.53 -8.75 16.93 C-8.87 16.04 -9 15.15 -9.13 14.23 C-9.88 11.59 -9.88 11.59 -12.23 9.95 C-21.51 6.01 -32.78 9.27 -42.06 11.75 C-42.06 7.79 -42.06 3.83 -42.06 -0.25 C-28.57 -4.39 -12.89 -7.85 0 0 Z " fill="#F8CC1A" transform="translate(351.05859375,60.25390625)"/>
<path d="M0 0 C4.15 3.22 6.47 6.63 7.95 11.71 C8.34 15.52 8.3 19.29 8.24 23.11 C8.23 24.19 8.23 25.27 8.23 26.38 C8.21 29.8 8.17 33.23 8.13 36.65 C8.12 38.98 8.1 41.31 8.09 43.63 C8.06 49.33 8.01 55.02 7.95 60.71 C3.33 60.71 -1.29 60.71 -6.05 60.71 C-6.55 57.74 -6.55 57.74 -7.05 54.71 C-8.09 55.49 -9.12 56.28 -10.18 57.09 C-15.55 61.17 -20.9 62.02 -27.55 62.09 C-28.82 62.11 -30.09 62.14 -31.4 62.17 C-36.72 61.5 -39.73 59.15 -43.3 55.27 C-47.21 49.55 -47.74 44.53 -47.05 37.71 C-44.83 30.9 -39.69 27.05 -33.49 23.9 C-27.52 21.83 -21.92 21.58 -15.68 21.65 C-14.94 21.65 -14.21 21.66 -13.45 21.66 C-11.65 21.67 -9.85 21.69 -8.05 21.71 C-8.14 20.27 -8.25 18.83 -8.37 17.4 C-8.43 16.6 -8.48 15.8 -8.54 14.97 C-9.15 12.29 -9.9 11.38 -12.05 9.71 C-21.66 6.51 -32.67 8.93 -42.05 11.71 C-42.05 7.75 -42.05 3.79 -42.05 -0.29 C-28.97 -4.78 -12.52 -7.85 0 0 Z " fill="#F8CC1A" transform="translate(140.0546875,60.2890625)"/>
<path d="M0 0 C11.22 0 22.44 0 34 0 C34 25.08 34 50.16 34 76 C39.94 76 45.88 76 52 76 C52 79.96 52 83.92 52 88 C34.18 88 16.36 88 -2 88 C-2 84.04 -2 80.08 -2 76 C4.6 76 11.2 76 18 76 C18 54.88 18 33.76 18 12 C12.06 12 6.12 12 0 12 C0 8.04 0 4.08 0 0 Z " fill="#F9CD1A" transform="translate(378,33)"/>
<path d="M0 0 C1.19 0.01 1.19 0.01 2.4 0.01 C7.88 0.09 12.84 0.68 18.12 2.25 C18.12 6.54 18.12 10.83 18.12 15.25 C16.42 14.75 16.42 14.75 14.69 14.25 C9.87 13.17 5.17 13.02 0.25 13 C-0.5 12.99 -1.25 12.98 -2.02 12.97 C-5.83 12.99 -7.63 13.09 -10.88 15.25 C-11.13 18.33 -11.13 18.33 -10.88 21.25 C-4.74 24.47 1.34 26.81 7.95 28.87 C14.18 30.95 18.39 33.65 22.12 39.25 C23.01 46.87 22.94 53.13 18.12 59.25 C12.71 64.82 5.61 66.39 -1.94 66.61 C-4.11 66.61 -6.27 66.59 -8.44 66.56 C-9.52 66.57 -10.61 66.57 -11.72 66.57 C-17.78 66.53 -23.07 66.01 -28.88 64.25 C-28.88 59.63 -28.88 55.01 -28.88 50.25 C-26.43 51 -23.99 51.75 -21.55 52.5 C-14.55 54.47 -5.63 56.2 1.3 53.36 C3.1 52.19 3.1 52.19 5.12 50.25 C5.43 47.36 5.43 47.36 4.12 44.25 C0.14 41.8 -4.47 40.67 -8.93 39.33 C-16.96 36.84 -23.45 34.35 -27.88 26.88 C-29.54 20.83 -29.93 16.56 -26.88 11.06 C-20.56 1.98 -10.48 -0.12 0 0 Z " fill="#F8CC1A" transform="translate(194.875,55.75)"/>
<path d="M0 0 C0.92 -0.01 1.85 -0.02 2.8 -0.02 C3.7 -0.02 4.6 -0.02 5.53 -0.02 C6.34 -0.01 7.15 -0.01 7.99 -0.01 C10.5 0.25 10.5 0.25 16.5 2.25 C16.5 6.87 16.5 11.49 16.5 16.25 C15.3 15.92 14.11 15.59 12.88 15.25 C5.36 13.61 -2.99 12.68 -10.12 15.88 C-13.81 19.56 -16.25 22.59 -17.03 27.84 C-17.21 38.31 -17.21 38.31 -12.5 47.25 C-7.98 50.81 -3.4 51.78 2.27 51.52 C5.8 51.09 9.07 50.22 12.5 49.25 C14.98 48.75 14.98 48.75 17.5 48.25 C17.5 52.87 17.5 57.49 17.5 62.25 C5.81 65.8 -7.97 68.08 -19.42 62.51 C-25.94 58.56 -29.73 54.38 -32.5 47.25 C-32.86 46.33 -33.21 45.42 -33.58 44.48 C-36.37 34.7 -35.16 24.91 -30.98 15.8 C-28.35 11.27 -25.51 7.93 -21.12 5.06 C-20.4 4.57 -19.67 4.09 -18.91 3.58 C-12.64 0.12 -7.01 -0.06 0 0 Z " fill="#F9CD1A" transform="translate(269.5,56.75)"/>
<path d="M0 0 C14.21 0 14.21 0 20 3 C23.94 7.14 25.38 10 25.27 15.77 C24.6 21.25 22.24 24.92 18.12 28.5 C14 30 14 30 0 30 C0 20.1 0 10.2 0 0 Z " fill="#030200" transform="translate(40,52)"/>
<path d="M0 0 C1.89 0.01 1.89 0.01 3.83 0.03 C4.79 0.04 5.76 0.05 6.75 0.06 C7.26 3.2 7.41 5.94 6.75 9.06 C3.77 12.75 -0.39 16.73 -5.27 17.3 C-11.54 17.5 -11.54 17.5 -14.81 15.5 C-16.84 12.06 -16.87 9.99 -16.25 6.06 C-11.42 -0.11 -7.48 -0.07 0 0 Z " fill="#040300" transform="translate(336.25,92.9375)"/>
<path d="M0 0 C0.7 0 1.4 0.01 2.13 0.01 C3.86 0.03 5.58 0.04 7.31 0.06 C7.82 3.2 7.98 5.94 7.31 9.06 C4.32 12.78 0.18 16.68 -4.71 17.34 C-11.03 17.61 -11.03 17.61 -14.25 14.94 C-15.95 11.53 -16.39 9.81 -15.69 6.06 C-10.94 0.29 -7.11 -0.09 0 0 Z " fill="#040300" transform="translate(124.6875,92.9375)"/>
<path d="M0 0 C9 0 9 0 12 2 C12.19 4.44 12.19 4.44 12 7 C11.88 9.94 11.88 9.94 12.62 12.5 C13 15 13 15 11 18 C8 19 8 19 0 19 C0 12.73 0 6.46 0 0 Z " fill="#D8D8D8" transform="translate(140,137)"/>
<path d="M0 0 C0.99 0 1.98 0 3 0 C3 6.93 3 13.86 3 21 C2.01 20.67 1.02 20.34 0 20 C-1.18 20.19 -2.35 20.37 -3.56 20.56 C-4.7 20.71 -5.83 20.85 -7 21 C-9.39 18.61 -9.32 17.91 -9.38 14.62 C-9.3 11.37 -9.15 10.23 -7.31 7.44 C-4.63 5.77 -3.11 5.65 0 6 C0 4.02 0 2.04 0 0 Z " fill="#E5E5E5" transform="translate(116,135)"/>
<path d="M0 0 C3 0.56 3 0.56 5.38 2.12 C7.61 5.48 7.49 7.61 7 11.56 C6 14 6 14 4 15.56 C1.22 16.12 -1.22 16.13 -4 15.56 C-6.67 13.39 -6.93 12.01 -7.44 8.62 C-6.74 3.71 -5.01 0.94 0 0 Z " fill="#ECECEC" transform="translate(393,140.4375)"/>
<path d="M0 0 C2.44 2.06 2.44 2.06 4 5 C3.94 8.49 3.64 10.9 1.88 13.94 C-1.14 15.65 -3.62 15.36 -7 15 C-8.94 14 -8.94 14 -10 12 C-10.76 5.17 -10.76 5.17 -8.38 1.5 C-5.26 -0.47 -3.62 -0.68 0 0 Z " fill="#E7E7E7" transform="translate(314,141)"/>
<path d="M0 0 C3.38 0.88 3.38 0.88 5.38 2.88 C5.5 6 5.5 6 5.38 8.88 C2.07 8.88 -1.22 8.88 -4.62 8.88 C-3.63 10.36 -3.63 10.36 -2.62 11.88 C0.94 12.61 0.94 12.61 4.38 12.88 C4.38 13.53 4.38 14.19 4.38 14.88 C-3.81 15.49 -3.81 15.49 -6.69 13.31 C-7.99 9.93 -8.07 7.47 -7.62 3.88 C-5.33 0.2 -4.36 -0.15 0 0 Z " fill="#DFDFDF" transform="translate(229.625,141.125)"/>
<path d="M0 0 C6.62 -0.25 6.62 -0.25 10 2 C10.29 5.04 10.29 5.04 10.19 8.62 C10.16 9.81 10.13 11 10.11 12.23 C10.07 13.14 10.04 14.06 10 15 C8.68 15 7.36 15 6 15 C4.45 15.06 4.45 15.06 2.88 15.12 C0 15 0 15 -2 13 C-1.67 9.7 -1.38 8.38 1 6 C4.12 5.88 4.12 5.88 7 6 C6.67 5.01 6.34 4.02 6 3 C3.69 3 1.38 3 -1 3 C-0.67 2.01 -0.34 1.02 0 0 Z " fill="#EDEDED" transform="translate(76,141)"/>
<path d="M0 0 C9 0 9 0 11 1 C10.67 2.65 10.34 4.3 10 6 C9.34 5.01 8.68 4.02 8 3 C5.44 2.27 5.44 2.27 3 2 C3 3.98 3 5.96 3 8 C4.98 8 6.96 8 9 8 C8.67 8.99 8.34 9.98 8 11 C6.35 10.67 4.7 10.34 3 10 C3 12.31 3 14.62 3 17 C5.31 17 7.62 17 10 17 C9.34 17.66 8.68 18.32 8 19 C5.36 19 2.72 19 0 19 C0 12.73 0 6.46 0 0 Z " fill="#F0F0F0" transform="translate(140,137)"/>
<path d="M0 0 C2.02 0.07 4.04 0.13 6.05 0.2 C6.05 0.86 6.05 1.52 6.05 2.2 C3.74 2.53 1.43 2.86 -0.95 3.2 C-0.95 4.19 -0.95 5.18 -0.95 6.2 C0.8 7.49 0.8 7.49 2.99 8.57 C6.91 10.88 6.91 10.88 8.24 13.82 C8.05 16.2 8.05 16.2 6.87 17.83 C4.43 19.66 2.88 19.5 -0.13 19.38 C-1.48 19.34 -1.48 19.34 -2.86 19.3 C-3.55 19.27 -4.24 19.23 -4.95 19.2 C-4.95 18.21 -4.95 17.22 -4.95 16.2 C-1.65 16.2 1.65 16.2 5.05 16.2 C2.76 11.61 1.53 11.25 -2.95 9.2 C-3.61 8.54 -4.27 7.88 -4.95 7.2 C-4.58 3.58 -4.17 0.42 0 0 Z " fill="#E5E5E5" transform="translate(292.9453125,136.8046875)"/>
<path d="M0 0 C0.66 0 1.32 0 2 0 C2 0.66 2 1.32 2 2 C2.99 1.34 3.98 0.68 5 0 C7.56 -0.25 7.56 -0.25 10 0 C12 2 12 2 12.2 5.04 C12.17 6.22 12.15 7.41 12.12 8.62 C12.11 9.81 12.09 11 12.07 12.23 C12.05 13.14 12.02 14.06 12 15 C11.01 15 10.02 15 9 15 C8.67 11.04 8.34 7.08 8 3 C6.68 3.33 5.36 3.66 4 4 C3.67 7.63 3.34 11.26 3 15 C2.01 15 1.02 15 0 15 C0 10.05 0 5.1 0 0 Z " fill="#E1E1E1" transform="translate(206,141)"/>
<path d="M0 0 C0.99 0 1.98 0 3 0 C3 1.32 3 2.64 3 4 C4.98 4 6.96 4 9 4 C9 4.99 9 5.98 9 7 C7.02 7 5.04 7 3 7 C3.33 9.97 3.66 12.94 4 16 C5.65 16.33 7.3 16.66 9 17 C9 17.66 9 18.32 9 19 C5.62 19.12 5.62 19.12 2 19 C0 17 0 17 -0.2 14.62 C-0.16 13.26 -0.16 13.26 -0.12 11.88 C-0.11 10.96 -0.09 10.05 -0.07 9.12 C-0.05 8.42 -0.02 7.72 0 7 C-1.32 7 -2.64 7 -4 7 C-4 6.01 -4 5.02 -4 4 C-2.68 4 -1.36 4 0 4 C0 2.68 0 1.36 0 0 Z " fill="#D2D2D2" transform="translate(357,137)"/>
<path d="M0 0 C2.31 0 4.62 0 7 0 C7 6.27 7 12.54 7 19 C8.32 19 9.64 19 11 19 C11 19.66 11 20.32 11 21 C7.37 21 3.74 21 0 21 C0 20.34 0 19.68 0 19 C1.32 19 2.64 19 4 19 C4 13.72 4 8.44 4 3 C2.68 3 1.36 3 0 3 C0 2.01 0 1.02 0 0 Z " fill="#DEDEDE" transform="translate(322,135)"/>
<path d="M0 0 C3.96 0 7.92 0 12 0 C12 0.66 12 1.32 12 2 C10.35 2 8.7 2 7 2 C7 6.95 7 11.9 7 17 C8.32 17 9.64 17 11 17 C11 17.66 11 18.32 11 19 C7.37 19 3.74 19 0 19 C0 18.34 0 17.68 0 17 C1.32 17 2.64 17 4 17 C4 12.05 4 7.1 4 2 C2.68 2 1.36 2 0 2 C0 1.34 0 0.68 0 0 Z " fill="#ECECEC" transform="translate(25,137)"/>
<path d="M0 0 C0.66 0 1.32 0 2 0 C2.33 4.29 2.66 8.58 3 13 C4.65 12.34 6.3 11.68 8 11 C8.33 7.37 8.66 3.74 9 0 C9.99 0 10.98 0 12 0 C12 4.95 12 9.9 12 15 C10.39 15.04 8.78 15.08 7.12 15.12 C6.22 15.15 5.32 15.17 4.38 15.2 C2 15 2 15 0 13 C-0.2 9.96 -0.2 9.96 -0.12 6.38 C-0.11 5.19 -0.09 4 -0.07 2.77 C-0.05 1.86 -0.02 0.94 0 0 Z " fill="#F1F1F1" transform="translate(338,141)"/>
<path d="M0 0 C0.99 0.33 1.98 0.66 3 1 C3.99 0.79 4.98 0.59 6 0.38 C9 0 9 0 10.68 1.09 C12.57 3.82 12.29 5.9 12.19 9.19 C12.16 10.27 12.13 11.36 12.11 12.48 C12.07 13.31 12.04 14.14 12 15 C11.01 15 10.02 15 9 15 C8.67 11.04 8.34 7.08 8 3 C4.26 3.57 4.26 3.57 3 5 C2.77 6.68 2.59 8.37 2.44 10.06 C2.31 11.44 2.31 11.44 2.18 12.85 C2.12 13.56 2.06 14.27 2 15 C1.34 15 0.68 15 0 15 C0 10.05 0 5.1 0 0 Z " fill="#DFDFDF" transform="translate(404,141)"/>
<path d="M0 0 C0.99 0.33 1.98 0.66 3 1 C3.99 0.79 4.98 0.59 6 0.38 C9 0 9 0 10.68 1.09 C12.57 3.82 12.29 5.9 12.19 9.19 C12.16 10.27 12.13 11.36 12.11 12.48 C12.07 13.31 12.04 14.14 12 15 C11.01 15 10.02 15 9 15 C8.67 11.04 8.34 7.08 8 3 C4.26 3.57 4.26 3.57 3 5 C2.77 6.68 2.59 8.37 2.44 10.06 C2.31 11.44 2.31 11.44 2.18 12.85 C2.12 13.56 2.06 14.27 2 15 C1.34 15 0.68 15 0 15 C0 10.05 0 5.1 0 0 Z " fill="#DFDFDF" transform="translate(91,141)"/>
<path d="M0 0 C2.02 0.07 4.04 0.13 6.05 0.2 C6.05 1.19 6.05 2.18 6.05 3.2 C3.74 3.2 1.43 3.2 -0.95 3.2 C-0.95 3.86 -0.95 4.52 -0.95 5.2 C1.69 6.52 4.33 7.84 7.05 9.2 C6.68 11.63 6.68 11.63 6.05 14.2 C3.65 15.4 2.1 15.3 -0.57 15.26 C-1.8 15.24 -1.8 15.24 -3.05 15.23 C-3.99 15.21 -3.99 15.21 -4.95 15.2 C-4.95 14.21 -4.95 13.22 -4.95 12.2 C-2.31 12.2 0.33 12.2 3.05 12.2 C3.05 11.54 3.05 10.88 3.05 10.2 C0.74 9.21 -1.57 8.22 -3.95 7.2 C-4.07 4.82 -4.07 4.82 -3.95 2.2 C-1.95 0.2 -1.95 0.2 0 0 Z " fill="#E0E0E0" transform="translate(243.9453125,140.8046875)"/>
<path d="M0 0 C2.02 0.07 4.04 0.13 6.05 0.2 C6.05 1.19 6.05 2.18 6.05 3.2 C3.74 3.2 1.43 3.2 -0.95 3.2 C-0.95 3.86 -0.95 4.52 -0.95 5.2 C1.69 6.52 4.33 7.84 7.05 9.2 C6.68 11.63 6.68 11.63 6.05 14.2 C3.65 15.4 2.1 15.3 -0.57 15.26 C-1.8 15.24 -1.8 15.24 -3.05 15.23 C-3.99 15.21 -3.99 15.21 -4.95 15.2 C-4.95 14.21 -4.95 13.22 -4.95 12.2 C-2.31 12.2 0.33 12.2 3.05 12.2 C3.05 11.54 3.05 10.88 3.05 10.2 C0.74 9.21 -1.57 8.22 -3.95 7.2 C-4.07 4.82 -4.07 4.82 -3.95 2.2 C-1.95 0.2 -1.95 0.2 0 0 Z " fill="#E0E0E0" transform="translate(177.9453125,140.8046875)"/>
<path d="M0 0 C2.02 0.07 4.04 0.13 6.05 0.2 C6.05 0.86 6.05 1.52 6.05 2.2 C4.07 2.53 2.09 2.86 0.05 3.2 C-0.28 4.19 -0.61 5.18 -0.95 6.2 C0 6.32 0.95 6.44 1.93 6.57 C5.05 7.2 5.05 7.2 7.05 9.2 C6.5 13.75 6.5 13.75 5.05 15.2 C3.54 15.27 2.01 15.28 0.49 15.26 C-0.33 15.25 -1.16 15.24 -2.01 15.23 C-2.65 15.22 -3.29 15.21 -3.95 15.2 C-3.95 14.54 -3.95 13.88 -3.95 13.2 C-0.48 12.7 -0.48 12.7 3.05 12.2 C3.05 11.54 3.05 10.88 3.05 10.2 C1.6 9.61 1.6 9.61 0.12 9.01 C-2.95 7.2 -2.95 7.2 -3.95 4.63 C-3.95 1.52 -3.2 0.32 0 0 Z " fill="#E4E4E4" transform="translate(424.9453125,140.8046875)"/>
<path d="M0 0 C0 0.66 0 1.32 0 2 C-1.98 2.33 -3.96 2.66 -6 3 C-6 3.66 -6 4.32 -6 5 C-5.03 5.39 -4.06 5.78 -3.06 6.19 C0 8 0 8 1 10.56 C1 11.37 1 12.17 1 13 C-1 15 -1 15 -3.16 15.2 C-4.38 15.16 -4.38 15.16 -5.62 15.12 C-6.44 15.11 -7.26 15.09 -8.1 15.07 C-8.73 15.05 -9.35 15.02 -10 15 C-10 14.34 -10 13.68 -10 13 C-7.36 13 -4.72 13 -2 13 C-2.33 12.01 -2.66 11.02 -3 10 C-3.99 9.55 -4.98 9.09 -6 8.62 C-9 7 -9 7 -9.88 4.31 C-9.92 3.55 -9.96 2.79 -10 2 C-6.36 -0.43 -4.29 -0.16 0 0 Z " fill="#E7E7E7" transform="translate(266,141)"/>
<path d="M0 0 C4.62 0 9.24 0 14 0 C14 0.66 14 1.32 14 2 C12.35 2 10.7 2 9 2 C9 7.61 9 13.22 9 19 C8.01 19 7.02 19 6 19 C6 13.39 6 7.78 6 2 C4.02 2 2.04 2 0 2 C0 1.34 0 0.68 0 0 Z " fill="#E8E8E8" transform="translate(40,137)"/>
<path d="M0 0 C2.64 0 5.28 0 8 0 C8 4.29 8 8.58 8 13 C9.32 13 10.64 13 12 13 C12 13.66 12 14.32 12 15 C8.04 15 4.08 15 0 15 C0 14.34 0 13.68 0 13 C1.65 13 3.3 13 5 13 C5 9.7 5 6.4 5 3 C3.35 3 1.7 3 0 3 C0 2.01 0 1.02 0 0 Z " fill="#D6D6D6" transform="translate(371,141)"/>
<path d="M0 0 C2.31 0 4.62 0 7 0 C7 4.29 7 8.58 7 13 C8.65 13 10.3 13 12 13 C12 13.66 12 14.32 12 15 C8.04 15 4.08 15 0 15 C0 14.34 0 13.68 0 13 C1.32 13 2.64 13 4 13 C4 9.7 4 6.4 4 3 C2.68 3 1.36 3 0 3 C0 2.01 0 1.02 0 0 Z " fill="#DADADA" transform="translate(190,141)"/>
<path d="M0 0 C0.66 0 1.32 0 2 0 C2.33 3.96 2.66 7.92 3 12 C4.65 11.67 6.3 11.34 8 11 C8.33 7.37 8.66 3.74 9 0 C9.66 0 10.32 0 11 0 C11 4.95 11 9.9 11 15 C9.68 15 8.36 15 7 15 C5.42 15.03 5.42 15.03 3.81 15.06 C1 15 1 15 0 14 C-0.07 11.65 -0.08 9.29 -0.06 6.94 C-0.05 5.65 -0.04 4.36 -0.04 3.03 C-0.02 2.03 -0.01 1.03 0 0 Z " fill="#F5F5F5" transform="translate(157,141)"/>
<path d="M0 0 C4.88 0.88 4.88 0.88 6 2 C6.19 5.44 6.19 5.44 6 9 C5.34 9.66 4.68 10.32 4 11 C1.38 10.62 1.38 10.62 -1 10 C-2.25 3.38 -2.25 3.38 0 0 Z " fill="#0C0C0C" transform="translate(391,143)"/>
<path d="M0 0 C2.62 0.38 2.62 0.38 5 1 C6.25 7.62 6.25 7.62 4 11 C-0.88 10.12 -0.88 10.12 -2 9 C-2.19 5.56 -2.19 5.56 -2 2 C-1.34 1.34 -0.68 0.68 0 0 Z " fill="#0C0C0C" transform="translate(309,143)"/>
<path d="M0 0 C0.05 1.46 0.09 2.92 0.12 4.38 C0.15 5.19 0.17 6 0.2 6.84 C0 9 0 9 -2 11 C-5.54 10.46 -5.54 10.46 -7 9 C-7.46 3.69 -7.46 3.69 -5.75 1.12 C-4 0 -4 0 0 0 Z " fill="#131313" transform="translate(116,143)"/>
<path d="M0 0 C6.62 -0.25 6.62 -0.25 10 2 C10.29 5.04 10.29 5.04 10.19 8.62 C10.16 9.81 10.13 11 10.11 12.23 C10.07 13.14 10.04 14.06 10 15 C9.34 15 8.68 15 8 15 C7.07 11.99 6.96 11.13 8 8 C6.02 8 4.04 8 2 8 C2 7.67 2 7.34 2 7 C3.65 7 5.3 7 7 7 C6.67 5.68 6.34 4.36 6 3 C3.69 3 1.38 3 -1 3 C-0.67 2.01 -0.34 1.02 0 0 Z " fill="#FDFDFD" transform="translate(76,141)"/>
<path d="M0 0 C2.38 -0.12 2.38 -0.12 5 0 C5.66 0.66 6.32 1.32 7 2 C6.46 5.54 6.46 5.54 5 7 C3.33 7.04 1.67 7.04 0 7 C0 4.69 0 2.38 0 0 Z " fill="#1B1B1B" transform="translate(143,147)"/>
<path d="M0 0 C0.99 0 1.98 0 3 0 C3 4.95 3 9.9 3 15 C2.34 15 1.68 15 1 15 C1 14.01 1 13.02 1 12 C0.34 11.67 -0.32 11.34 -1 11 C-0.67 7.37 -0.34 3.74 0 0 Z " fill="#DADADA" transform="translate(347,141)"/>
<path d="M0 0 C1.98 0 3.96 0 6 0 C6 5.61 6 11.22 6 17 C5.34 17.33 4.68 17.66 4 18 C4 12.72 4 7.44 4 2 C2.68 2 1.36 2 0 2 C0 1.34 0 0.68 0 0 Z " fill="#D5D5D5" transform="translate(322,136)"/>
<path d="M0 0 C2.31 0.33 4.62 0.66 7 1 C6.36 1.45 5.72 1.91 5.06 2.38 C2.02 6.25 2.18 10.19 2 15 C1.34 15 0.68 15 0 15 C0 10.05 0 5.1 0 0 Z " fill="#F6F6F6" transform="translate(404,141)"/>
<path d="M0 0 C2.31 0.33 4.62 0.66 7 1 C6.36 1.45 5.72 1.91 5.06 2.38 C2.02 6.25 2.18 10.19 2 15 C1.34 15 0.68 15 0 15 C0 10.05 0 5.1 0 0 Z " fill="#F6F6F6" transform="translate(91,141)"/>
<path d="M0 0 C0.99 0 1.98 0 3 0 C3 1.32 3 2.64 3 4 C4.98 4 6.96 4 9 4 C9 4.33 9 4.66 9 5 C7.17 5.22 7.17 5.22 5.31 5.44 C2.17 5.83 -0.91 6.32 -4 7 C-4 6.01 -4 5.02 -4 4 C-2.68 4 -1.36 4 0 4 C0 2.68 0 1.36 0 0 Z " fill="#CECECE" transform="translate(357,137)"/>
<path d="M0 0 C1.65 0 3.3 0 5 0 C5.33 1.65 5.66 3.3 6 5 C4.02 5.33 2.04 5.66 0 6 C0 4.02 0 2.04 0 0 Z " fill="#0C0C0C" transform="translate(143,139)"/>
<path d="M0 0 C-0.33 0.99 -0.66 1.98 -1 3 C-2.33 3.33 -3.67 3.67 -5 4 C-5.33 4.99 -5.66 5.98 -6 7 C-6.66 7 -7.32 7 -8 7 C-8.33 8.32 -8.66 9.64 -9 11 C-9.48 4.7 -9.48 4.7 -7.31 1.56 C-4.62 -0.26 -3.19 -0.35 0 0 Z " fill="#E1E1E1" transform="translate(231,141)"/>
<path d="M0 0 C0.91 0.1 1.81 0.21 2.75 0.31 C2.75 0.97 2.75 1.63 2.75 2.31 C1.61 2.47 1.61 2.47 0.44 2.62 C-2.51 3.38 -3.5 3.87 -5.25 6.31 C-5.97 8.92 -5.97 8.92 -6.25 11.31 C-6.58 11.31 -6.91 11.31 -7.25 11.31 C-7.59 7.62 -7.47 5.7 -5.62 2.44 C-3.25 0.31 -3.25 0.31 0 0 Z " fill="#D3D3D3" transform="translate(393.25,140.6875)"/>
<path d="M0 0 C0.33 0 0.66 0 1 0 C1 2.97 1 5.94 1 9 C3.64 9.33 6.28 9.66 9 10 C9 10.66 9 11.32 9 12 C5.62 12.12 5.62 12.12 2 12 C0 10 0 10 -0.2 7.62 C-0.17 6.71 -0.15 5.81 -0.12 4.88 C-0.11 3.96 -0.09 3.05 -0.07 2.12 C-0.05 1.42 -0.02 0.72 0 0 Z " fill="#F1F1F1" transform="translate(357,144)"/>
<path d="M0 0 C6.62 -0.25 6.62 -0.25 10 2 C10 2.66 10 3.32 10 4 C9.34 4 8.68 4 8 4 C7.67 4.66 7.34 5.32 7 6 C6.67 5.01 6.34 4.02 6 3 C3.69 3 1.38 3 -1 3 C-0.67 2.01 -0.34 1.02 0 0 Z " fill="#DEDEDE" transform="translate(76,141)"/>
<path d="M0 0 C0.69 1.81 0.69 1.81 1 4 C-0.06 5.75 -0.06 5.75 -2 7 C-5.19 7.19 -5.19 7.19 -8 7 C-8 6.34 -8 5.68 -8 5 C-6.86 4.88 -6.86 4.88 -5.69 4.75 C-2.48 3.85 -1.71 2.78 0 0 Z " fill="#F2F2F2" transform="translate(316,149)"/>
<path d="M0 0 C2.05 0.03 4.1 0.07 6.15 0.1 C6.15 0.76 6.15 1.42 6.15 2.1 C5.06 2.2 3.97 2.3 2.84 2.41 C-0.7 3.07 -1.78 3.3 -3.85 6.1 C-2.78 0.15 -2.78 0.15 0 0 Z " fill="#F8F8F8" transform="translate(292.84765625,136.90234375)"/>
<path d="M0 0 C0 0.66 0 1.32 0 2 C-3.63 2 -7.26 2 -11 2 C-11 1.34 -11 0.68 -11 0 C-7.02 -1.05 -4.02 -0.84 0 0 Z " fill="#FFFFFF" transform="translate(333,154)"/>
<path d="M0 0 C1.98 0 3.96 0 6 0 C6 0.99 6 1.98 6 3 C4.02 3.33 2.04 3.66 0 4 C0 2.68 0 1.36 0 0 Z " fill="#0D0D0D" transform="translate(77,150)"/>
<path d="M0 0 C1.94 0.31 1.94 0.31 4 1 C4.33 1.99 4.66 2.98 5 4 C2.69 4 0.38 4 -2 4 C-1.34 2.68 -0.68 1.36 0 0 Z " fill="#0B0B0B" transform="translate(227,143)"/>
<path d="M0 0 C1.32 0.66 2.64 1.32 4 2 C4 2.66 4 3.32 4 4 C3.34 4 2.68 4 2 4 C2 4.66 2 5.32 2 6 C-0.64 6 -3.28 6 -6 6 C-6 5.67 -6 5.34 -6 5 C-3.69 5 -1.38 5 1 5 C0.67 3.35 0.34 1.7 0 0 Z " fill="#BEBEBE" transform="translate(231,142)"/>
<path d="M0 0 C1.45 0.03 1.45 0.03 2.94 0.06 C3.27 1.71 3.6 3.36 3.94 5.06 C3.61 4.4 3.28 3.74 2.94 3.06 C0.63 3.39 -1.68 3.72 -4.06 4.06 C-4.06 0.08 -4.06 0.08 0 0 Z " fill="#AAAAAA" transform="translate(80.0625,146.9375)"/>
<path d="M0 0 C0.33 1.32 0.66 2.64 1 4 C1.66 4.33 2.32 4.66 3 5 C1.62 7 1.62 7 0 9 C-0.66 9 -1.32 9 -2 9 C-1.34 6.03 -0.68 3.06 0 0 Z " fill="#CDCDCD" transform="translate(397,147)"/>
<path d="M0 0 C0.33 0 0.66 0 1 0 C1.39 1.29 1.76 2.58 2.12 3.88 C2.33 4.59 2.54 5.31 2.76 6.05 C2.84 6.7 2.92 7.34 3 8 C2.34 8.66 1.68 9.32 1 10 C0.34 9.34 -0.32 8.68 -1 8 C-0.97 5.27 -0.44 2.7 0 0 Z " fill="#CDCDCD" transform="translate(306,146)"/>
<path d="M0 0 C0.66 0 1.32 0 2 0 C2.33 2.31 2.66 4.62 3 7 C2.01 6.67 1.02 6.34 0 6 C-0.38 4.34 -0.71 2.68 -1 1 C-0.67 0.67 -0.34 0.34 0 0 Z " fill="#D6D6D6" transform="translate(315,144)"/>
</svg>
